<svg xmlns="http://www.w3.org/2000/svg" height="800" width="1200" viewBox="-74.40627 -22.479175 644.85434 134.87505"><defs><clipPath clipPathUnits="userSpaceOnUse" id="b"><path d="M0 0h612v792H0z"/></clipPath><clipPath clipPathUnits="userSpaceOnUse" id="a"><path d="M0 0h612v792H0z"/></clipPath></defs><g clip-path="url(#a)" transform="matrix(3.80037 0 0 -3.80037 -159.4155 2902.1945)"><path d="M56.9474 763.6516h-9.64s-5.36.26-5.36-5.16v-18.49z" fill="#ea0437"/></g><path d="M85.2631.038H68.7695L41.407 41.918l27.4007 44.8444h17.0636L58.8126 41.044z"/><g clip-path="url(#b)" transform="matrix(3.80037 0 0 -3.80037 -159.4155 2902.1945)"><path d="M80.4161 763.6516h-10.15s-4.78 0-4.8-5.06v-12.24s-.44-5.53 5.27-5.53h10.15v3.59h-9.91s-1.63-.16-1.63 1.78v4.88h10.46v3.41h-10.46v4.26s-.13 1.55 1.86 1.55h7.13zm35.9668 0h-10.15s-4.78 0-4.8-5.06v-12.24s-.44-5.53 5.27-5.53h10.15v3.59h-9.91s-1.63-.16-1.63 1.78v4.88h10.46v3.41h-10.45v4.26s-.13 1.55 1.86 1.55h7.13zm27.8067-9.1661v4.26s-.13 1.55 1.86 1.55h7.13l2.09 3.36h-10.15s-4.78 0-4.8-5.06v-12.24s-.44-5.53 5.27-5.53h9.96v3.36h-9.73s-1.63-.15-1.63 1.78v5.11zm27.8125 9.1661h-10.15s-4.78 0-4.8-5.06v-12.24s-.44-5.53 5.27-5.53h10.15v3.59h-9.91s-1.63-.16-1.63 1.78v4.88h10.46v3.41h-10.46v4.26s-.13 1.55 1.86 1.55h7.13z"/></g><path d="M150.9088.038h16.1895l20.028 36.9016L208.0283.038h16.1896l-30.631 50.1268v36.5976h-14.0994V49.8608zm144.8292 0v86.7244h13.8334V28.3887l37.6617 58.3737h12.9592V0H346.055v57.8036L308.9634.038z"/></svg>