<svg xmlns="http://www.w3.org/2000/svg" height="800" width="1200" version="1.0" viewBox="-116.9292 -39.51475 1013.3864 237.0885"><path d="M78.754 158.059C35.447 158.059 0 122.61 0 78.675 0 35.447 35.447 0 78.754 0c43.857 0 79.305 35.447 79.305 78.675 0 43.936-35.448 79.384-79.305 79.384zm0-33.09c25.78 0 46.216-20.435 46.216-46.294 0-25.23-20.436-45.664-46.216-45.664-25.308 0-45.743 20.435-45.743 45.664 0 25.86 20.435 46.294 45.743 46.294m485.653 33.09c-43.307 0-78.754-35.448-78.754-79.384C485.653 35.447 521.1 0 564.407 0c43.857 0 79.304 35.447 79.304 78.675 0 43.936-35.447 79.384-79.304 79.384zm0-33.09c25.78 0 46.215-20.435 46.215-46.294 0-25.23-20.435-45.664-46.215-45.664-25.309 0-45.744 20.435-45.744 45.664 0 25.86 20.435 46.294 45.744 46.294M167.098 4.794v149.65h33.01V32.46h36.705v121.984h33.011V32.46h12.654c13.205 0 23.422 10.218 23.422 22.794v99.19h33.09V56.433c0-29.396-23.422-52.896-52.896-52.896h-85.357c-11.396 0-22.872 0-33.64 1.257m485.653 0v149.65h33.01V32.46h37.335c12.575 0 23.421 10.218 23.421 22.794v99.19h33.012V56.433c0-29.396-23.423-52.896-52.897-52.896h-40.87c-10.768 0-22.243 0-33.01 1.257m-299.928 0v149.65h33.01V32.46h39.064c13.282 0 23.5 10.218 23.5 22.794 0 13.204-10.218 23.421-23.5 23.421H396.68l51.088 75.769h40.87l-37.254-54.705c17.999-6.602 30.024-24.05 30.024-44.485 0-28.217-22.793-51.717-51.717-51.717h-43.857c-11.397 0-22.243 0-33.011 1.257" fill="#166fc0" fill-rule="evenodd"/></svg>